<svg width="722" height="458" viewBox="0 0 722 458" fill="none" xmlns="http://www.w3.org/2000/svg">
<g filter="url(#filter0_i_47_15)">
<path d="M697 0H25C11.1929 0 0 11.1929 0 25V433C0 446.807 11.1929 458 25 458H697C710.807 458 722 446.807 722 433V25C722 11.1929 710.807 0 697 0Z" fill="url(#paint0_linear_47_15)"/>
</g>
<path d="M99 395.639V403.973C98.6729 404.374 98.1561 404.81 97.4509 405.281C96.7562 405.751 95.8469 406.157 94.7218 406.501C93.5979 406.833 92.2176 407 90.5822 407C89.1614 407 87.8635 406.774 86.6886 406.324C85.5124 405.864 84.5011 405.193 83.652 404.31C82.8042 403.428 82.15 402.351 81.6895 401.077C81.2303 399.804 81 398.349 81 396.713V395.302C81 393.666 81.2146 392.211 81.6437 390.937C82.0833 389.664 82.7074 388.585 83.5146 387.704C84.3323 386.822 85.3083 386.151 86.4427 385.691C87.5874 385.231 88.8657 385 90.2761 385C92.1666 385 93.7209 385.298 94.9363 385.897C96.1635 386.494 97.1042 387.317 97.7584 388.366C98.4126 389.404 98.8208 390.599 98.9843 391.951H94.8748C94.7636 391.206 94.5386 390.556 94.201 389.996C93.8635 389.428 93.3834 388.988 92.7593 388.674C92.147 388.351 91.3489 388.189 90.3676 388.189C89.5395 388.189 88.8094 388.346 88.1749 388.659C87.5416 388.973 87.0105 389.428 86.5813 390.026C86.1522 390.623 85.8251 391.363 85.6001 392.245C85.3855 393.126 85.2782 394.136 85.2782 395.272V396.713C85.2782 397.859 85.3999 398.877 85.6459 399.769C85.8905 400.651 86.2438 401.396 86.703 402.004C87.174 402.601 87.751 403.056 88.4366 403.37C89.1313 403.674 89.9176 403.826 90.7968 403.826C91.5949 403.826 92.2543 403.762 92.775 403.634C93.3062 403.497 93.7301 403.336 94.048 403.15C94.3646 402.963 94.6093 402.783 94.7833 402.606V398.594H90.3519V395.639H99Z" fill="white"/>
<path d="M114.024 388.339L107.545 407H103L111.494 385H114.398L114.024 388.339ZM119.441 407L112.931 388.339L112.541 385H115.46L124 407H119.441ZM119.145 398.826V402.104H106.95V398.826H119.145Z" fill="white"/>
<path d="M136.881 397.193H131.628L131.599 394.263H136.104C136.877 394.263 137.521 394.147 138.04 393.915C138.558 393.682 138.949 393.346 139.213 392.902C139.485 392.459 139.621 391.92 139.621 391.286C139.621 390.58 139.495 390.007 139.24 389.563C138.996 389.119 138.61 388.797 138.082 388.596C137.555 388.385 136.886 388.279 136.076 388.279H132.885V407H129V385H136.076C137.244 385 138.284 385.121 139.198 385.362C140.12 385.594 140.902 385.957 141.542 386.451C142.182 386.944 142.668 387.563 142.997 388.308C143.336 389.055 143.506 389.941 143.506 390.968C143.506 391.875 143.308 392.712 142.913 393.476C142.527 394.232 141.928 394.847 141.119 395.32C140.319 395.793 139.302 396.065 138.067 396.136L136.881 397.193ZM136.712 407H130.482L132.107 403.735H136.712C137.484 403.735 138.119 403.6 138.618 403.328C139.127 403.056 139.504 402.683 139.749 402.21C140.003 401.727 140.13 401.172 140.13 400.548C140.13 399.862 140.018 399.268 139.791 398.765C139.574 398.261 139.226 397.873 138.746 397.602C138.275 397.33 137.654 397.193 136.881 397.193H132.841L132.87 394.263H138.011L138.902 395.396C140.088 395.405 141.053 395.658 141.797 396.151C142.55 396.644 143.106 397.28 143.464 398.055C143.822 398.831 144 399.666 144 400.562C144 401.973 143.713 403.156 143.138 404.113C142.574 405.07 141.745 405.791 140.653 406.274C139.569 406.758 138.257 407 136.712 407Z" fill="white"/>
<path d="M151 385H159.052C160.735 385 162.182 385.251 163.388 385.756C164.596 386.26 165.525 387.005 166.174 387.991C166.823 388.979 167.148 390.192 167.148 391.634C167.148 392.771 166.945 393.758 166.539 394.595C166.134 395.431 165.56 396.131 164.819 396.694C164.088 397.259 163.226 397.703 162.232 398.025L160.923 398.689H153.816L153.786 395.41H159.097C159.96 395.41 160.675 395.259 161.243 394.958C161.812 394.655 162.238 394.237 162.521 393.703C162.816 393.169 162.962 392.559 162.962 391.875C162.962 391.14 162.821 390.505 162.536 389.972C162.252 389.428 161.821 389.009 161.243 388.717C160.665 388.424 159.934 388.279 159.052 388.279H155.186V407H151V385ZM163.51 407L158.382 397.148L162.81 397.133L168 406.789V407H163.51Z" fill="white"/>
<path d="M178 385V407H173V385H178Z" fill="white"/>
<path d="M199 403.735V407H187.771V403.735H199ZM188.99 385V407H185V385H188.99ZM197.534 394.081V397.269H187.771V394.081H197.534ZM198.957 385V388.279H187.771V385H198.957Z" fill="white"/>
<path d="M219 403.735V407H207.909V403.735H219ZM209.167 385V407H205V385H209.167Z" fill="white"/>
<path d="M246.999 399.666H250.985C250.879 401.097 250.488 402.366 249.812 403.472C249.135 404.57 248.193 405.432 246.986 406.059C245.777 406.686 244.313 407 242.594 407C241.271 407 240.077 406.764 239.014 406.294C237.961 405.815 237.057 405.134 236.304 404.252C235.56 403.361 234.989 402.292 234.594 401.048C234.198 399.794 234 398.388 234 396.831V395.199C234 393.642 234.203 392.236 234.608 390.982C235.014 389.728 235.594 388.659 236.347 387.778C237.11 386.886 238.024 386.2 239.087 385.72C240.159 385.24 241.357 385 242.681 385C244.401 385 245.855 385.324 247.044 385.969C248.231 386.606 249.155 387.483 249.812 388.6C250.468 389.718 250.864 391.001 251 392.45H247.014C246.937 391.55 246.743 390.785 246.434 390.158C246.135 389.531 245.681 389.056 245.072 388.733C244.473 388.4 243.676 388.233 242.681 388.233C241.908 388.233 241.226 388.38 240.637 388.674C240.057 388.968 239.574 389.409 239.188 389.996C238.801 390.574 238.512 391.299 238.319 392.172C238.126 393.034 238.028 394.033 238.028 395.169V396.831C238.028 397.918 238.116 398.892 238.289 399.755C238.463 400.617 238.734 401.347 239.101 401.945C239.469 402.542 239.941 402.998 240.521 403.312C241.101 403.625 241.791 403.782 242.594 403.782C243.57 403.782 244.363 403.625 244.971 403.312C245.589 402.998 246.058 402.537 246.376 401.93C246.705 401.323 246.913 400.568 246.999 399.666Z" fill="white"/>
<path d="M272.099 385V407H268V385H272.099ZM280.851 394.504V397.783H271.027V394.504H280.851ZM282 385V388.279H271.027V385H282Z" fill="white"/>
<path d="M288 385H296.051C297.735 385 299.181 385.251 300.388 385.756C301.596 386.26 302.525 387.005 303.174 387.991C303.823 388.979 304.148 390.192 304.148 391.634C304.148 392.771 303.944 393.758 303.539 394.595C303.132 395.431 302.56 396.131 301.819 396.694C301.088 397.259 300.226 397.703 299.231 398.025L297.923 398.689H290.816L290.786 395.41H296.096C296.958 395.41 297.674 395.259 298.243 394.958C298.81 394.655 299.236 394.237 299.521 393.703C299.816 393.169 299.962 392.559 299.962 391.875C299.962 391.14 299.821 390.505 299.536 389.972C299.252 389.428 298.821 389.009 298.243 388.717C297.664 388.424 296.934 388.279 296.051 388.279H292.186V407H288V385ZM300.51 407L295.382 397.148L299.81 397.133L305 406.789V407H300.51Z" fill="white"/>
<path d="M324 403.735V407H312.771V403.735H324ZM313.989 385V407H310V385H313.989ZM322.535 394.081V397.269H312.771V394.081H322.535ZM323.957 385V388.279H312.771V385H323.957Z" fill="white"/>
<path d="M334 385V407H330V385H334Z" fill="white"/>
<path d="M350.449 385V407H346.478V385H350.449ZM357 385V388.279H340V385H357Z" fill="white"/>
<path d="M370.499 388.339L364.327 407H360L368.089 385H370.855L370.499 388.339ZM375.658 407L369.457 388.339L369.085 385H371.867L380 407H375.658ZM375.375 398.826V402.104H363.762V398.826H375.375Z" fill="white"/>
<path d="M396.003 401.147C396.003 400.735 395.941 400.368 395.815 400.044C395.699 399.71 395.483 399.412 395.164 399.147C394.855 398.872 394.415 398.607 393.845 398.352C393.286 398.088 392.562 397.814 391.674 397.529C390.69 397.215 389.772 396.863 388.923 396.47C388.073 396.078 387.325 395.623 386.679 395.102C386.041 394.583 385.545 393.985 385.187 393.309C384.829 392.622 384.651 391.828 384.651 390.926C384.651 390.044 384.834 389.24 385.201 388.514C385.578 387.788 386.109 387.166 386.794 386.646C387.48 386.117 388.285 385.71 389.212 385.427C390.148 385.142 391.181 385 392.311 385C393.875 385 395.227 385.289 396.365 385.867C397.514 386.446 398.402 387.23 399.03 388.22C399.656 389.21 399.97 390.323 399.97 391.558H396.003C396.003 390.892 395.863 390.303 395.584 389.794C395.313 389.284 394.898 388.881 394.338 388.588C393.787 388.294 393.093 388.147 392.253 388.147C391.442 388.147 390.766 388.269 390.226 388.514C389.695 388.76 389.295 389.092 389.024 389.514C388.763 389.936 388.634 390.406 388.634 390.926C388.634 391.319 388.725 391.671 388.908 391.985C389.092 392.289 389.366 392.578 389.733 392.853C390.1 393.117 390.554 393.368 391.095 393.602C391.645 393.828 392.282 394.054 393.006 394.279C394.164 394.633 395.177 395.024 396.047 395.456C396.926 395.888 397.654 396.377 398.233 396.927C398.822 397.475 399.261 398.093 399.551 398.779C399.85 399.465 400 400.245 400 401.117C400 402.039 399.821 402.863 399.464 403.588C399.107 404.313 398.595 404.932 397.929 405.441C397.263 405.951 396.462 406.339 395.526 406.603C394.599 406.868 393.561 407 392.412 407C391.389 407 390.376 406.863 389.371 406.588C388.378 406.304 387.475 405.882 386.664 405.323C385.853 404.755 385.206 404.04 384.724 403.176C384.241 402.304 384 401.284 384 400.118H387.996C387.996 400.794 388.102 401.373 388.315 401.852C388.536 402.323 388.845 402.711 389.241 403.014C389.647 403.309 390.12 403.524 390.66 403.662C391.201 403.799 391.784 403.868 392.412 403.868C393.223 403.868 393.889 403.755 394.41 403.529C394.941 403.294 395.337 402.97 395.598 402.559C395.868 402.147 396.003 401.677 396.003 401.147Z" fill="white"/>
<path d="M172.279 156.195H86.4971C83.1413 156.195 80.4209 158.915 80.4209 162.271V219.459C80.4209 222.815 83.1413 225.535 86.4971 225.535H172.279C175.635 225.535 178.356 222.815 178.356 219.459V162.271C178.356 158.915 175.635 156.195 172.279 156.195Z" fill="url(#paint1_linear_47_15)" stroke="#211F21" stroke-width="2.14455"/>
<path d="M80.7783 178.713H110.087" stroke="#211F21" stroke-width="2" stroke-linecap="round"/>
<path d="M80.7783 200.873H109.445" stroke="#211F21" stroke-width="2" stroke-linecap="round"/>
<path d="M149.404 200.873H177.998" stroke="#211F21" stroke-width="2" stroke-linecap="round"/>
<path d="M148.975 179.428H177.998" stroke="#211F21" stroke-width="2" stroke-linecap="round"/>
<path d="M129.388 168.706C130.572 168.706 131.533 167.745 131.533 166.561C131.533 165.377 130.572 164.417 129.388 164.417C128.204 164.417 127.243 165.377 127.243 166.561C127.243 167.745 128.204 168.706 129.388 168.706Z" fill="#211F21"/>
<path d="M231.053 205.824C236.325 192.59 236.926 185.119 231.053 171.645C230.43 170.215 231.053 169.024 231.768 168.786C232.483 168.547 233.589 168.786 234.27 170.215C241.188 184.73 240.767 192.87 234.627 207.387C233.912 208.817 232.575 208.998 231.768 208.46C230.824 207.831 230.608 206.941 231.053 205.824Z" fill="#FBF8FC"/>
<path d="M223.547 172.717C222.832 173.075 222.375 174.43 223.19 175.934C227.999 185.94 227.801 191.662 223.19 202.026C222.686 203.071 222.998 204.226 223.905 204.528C224.977 204.886 225.913 204.125 226.406 203.098C231.701 192.084 231.84 185.756 226.406 174.147C225.905 173.075 224.619 172.181 223.547 172.717Z" fill="#FBF8FC"/>
<path d="M216.399 177.364C215.326 177.721 215.136 178.908 215.684 180.223C218.53 187.063 218.979 190.898 215.684 197.737C215.041 198.929 214.83 200.193 216.041 200.596C217.252 201 218.126 200.363 218.543 199.524C222.766 191.149 221.82 186.454 218.543 178.079C218.263 177.364 217.471 177.006 216.399 177.364Z" fill="#FBF8FC"/>
<path d="M208.893 180.223C207.82 180.938 207.668 182.022 208.535 183.797C210.344 187.564 210.303 189.68 208.535 193.448C207.713 195.11 207.463 197.022 208.893 197.38C210.322 197.737 210.957 197.229 211.752 195.235C213.578 189.987 213.756 187.02 211.752 181.653C211.291 180.261 210.322 179.508 208.893 180.223Z" fill="#FBF8FC"/>
<path d="M145.115 170.849C142.372 161.508 137.251 156.91 129.03 156.91C119.023 156.91 116.194 164.53 110.087 178.355C113.998 187.507 114.039 192.437 110.087 200.873C116.494 219.254 121.24 224.915 129.388 224.821C140.111 224.821 143.163 215.733 149.046 200.873C145.952 192.497 145.622 187.875 148.5 179.5" stroke="#211F21" stroke-width="2" stroke-linecap="round"/>
<path fill-rule="evenodd" clip-rule="evenodd" d="M335.377 62.1665L329.831 76.035H337.503L335.401 62.1077L335.377 62.1665ZM306 94L328.749 47H345.943L355.536 94H340.435L339.326 87.7376H324.676L321.306 94H306ZM362.683 94L369.273 47H384.487L377.898 94H362.683ZM463.866 62.1077L458.299 76.035H465.971L463.866 62.1077ZM434.466 94L457.215 47H474.408L484 94H468.9L467.79 87.7376H453.141L449.771 94H434.466ZM400.833 72.0234H419.895L432.958 93.7373H413.892L400.833 72.0234Z" fill="white"/>
<path d="M527.784 103.12C525.16 103.12 521.896 101.552 517.992 98.416C515.24 97.968 512.872 97.36 510.888 96.592C508.968 95.888 507.368 95.024 506.088 94C504.296 92.464 502.728 90.416 501.384 87.856C500.04 85.296 499.368 82.832 499.368 80.464C499.368 78.672 499.784 77.072 500.616 75.664C502.536 72.272 504.968 70.576 507.912 70.576C510.152 70.576 511.464 72.464 511.848 76.24C512.296 79.76 512.648 82.576 512.904 84.688C513.224 86.736 513.48 88.08 513.672 88.72C514.632 91.856 516.264 94.512 518.568 96.688C521.256 97.264 524.168 97.552 527.304 97.552C534.216 97.552 540.84 96.24 547.176 93.616C549.864 92.464 552.488 90.96 555.048 89.104C557.608 87.248 559.72 85.2 561.384 82.96C563.048 80.72 563.88 78.544 563.88 76.432C563.88 73.424 561.224 71.088 555.912 69.424L539.016 65.584C535.56 64.816 532.776 63.472 530.664 61.552C528.616 59.568 527.592 57.328 527.592 54.832C527.592 50.992 529.992 47.152 534.792 43.312C537.224 41.328 540.072 39.664 543.336 38.32C546.6 36.912 550.024 35.856 553.608 35.152C557.256 34.384 560.744 34 564.072 34C568.808 34 572.84 34.736 576.168 36.208C579.56 37.68 581.672 39.824 582.504 42.64C582.696 43.28 582.792 43.984 582.792 44.752C582.792 48.656 580.84 51.376 576.936 52.912C574.568 53.872 572.552 54.352 570.888 54.352C569.864 54.352 569.064 54.16 568.488 53.776C568.36 53.648 568.296 53.488 568.296 53.296C568.296 52.848 569.192 52.592 570.984 52.528C572.072 52.464 572.968 52.368 573.672 52.24C574.376 52.112 574.888 51.984 575.208 51.856C577.64 50.576 578.856 48.688 578.856 46.192C578.856 44.912 578.504 43.568 577.8 42.16C575.816 38.512 570.856 36.688 562.92 36.688C560.04 36.688 557.064 37.008 553.992 37.648C550.92 38.224 548.008 39.12 545.256 40.336C542.504 41.488 540.168 42.96 538.248 44.752C534.92 47.824 533.256 50.576 533.256 53.008C533.256 54.864 534.152 56.528 535.944 58C537.8 59.408 540.584 60.464 544.296 61.168L555.624 63.28C559.976 64.112 563.496 65.36 566.184 67.024C568.872 68.624 570.216 71.088 570.216 74.416C570.216 77.36 569.48 80.112 568.008 82.672C566.536 85.232 564.552 87.536 562.056 89.584C559.624 91.568 556.84 93.232 553.704 94.576C546.6 97.712 538.216 99.28 528.552 99.28C527.336 99.28 526.12 99.248 524.904 99.184C523.688 99.12 522.504 99.024 521.352 98.896C522.248 99.408 523.368 99.92 524.712 100.432C526.12 100.944 527.72 101.424 529.512 101.872C529.704 101.936 529.8 102.064 529.8 102.256C529.8 102.832 529.128 103.12 527.784 103.12ZM515.112 95.728C513.384 93.808 512.04 91.824 511.08 89.776C509.672 86.576 508.616 82.64 507.912 77.968C507.4 74.576 506.856 72.88 506.28 72.88C505.768 72.88 505.064 73.264 504.168 74.032C503.336 74.8 502.92 76.432 502.92 78.928C502.92 83.792 504.648 88.016 508.104 91.6C509.832 93.392 512.168 94.768 515.112 95.728ZM594.029 60.976C592.941 60.976 591.981 60.624 591.149 59.92C590.381 59.216 589.997 58.416 589.997 57.52C589.997 55.728 591.213 54.832 593.645 54.832C594.541 54.832 595.437 55.152 596.333 55.792C597.229 56.368 597.677 57.104 597.677 58C597.677 58.768 597.261 59.472 596.429 60.112C595.597 60.688 594.797 60.976 594.029 60.976ZM576.269 95.056C574.861 95.056 573.709 94.608 572.812 93.712C571.852 92.752 571.372 91.088 571.372 88.72C571.372 87.376 571.692 85.84 572.332 84.112C572.909 82.32 573.645 80.528 574.541 78.736C575.501 76.944 576.429 75.344 577.325 73.936C580.909 68.112 583.853 65.168 586.157 65.104C586.733 65.104 587.437 65.36 588.269 65.872C589.101 66.32 589.517 66.832 589.517 67.408C589.517 67.408 587.085 70.544 582.221 76.816C577.421 83.024 575.021 87.44 575.021 90.064C575.021 92.112 575.821 93.136 577.421 93.136C578.445 93.136 579.757 92.72 581.357 91.888C583.021 90.992 584.749 89.872 586.541 88.528C588.333 87.184 590.029 85.744 591.629 84.208C593.293 82.672 594.637 81.264 595.661 79.984C596.301 79.152 596.845 78.576 597.293 78.256C597.805 77.936 598.125 77.776 598.253 77.776C598.509 77.776 598.637 77.968 598.637 78.352C598.637 78.672 598.253 79.312 597.484 80.272C596.781 81.232 595.789 82.352 594.509 83.632C592.973 85.168 591.277 86.832 589.421 88.624C587.565 90.416 585.549 91.952 583.373 93.232C581.197 94.448 578.829 95.056 576.269 95.056ZM617.125 94.192C615.589 94.192 614.821 93.328 614.821 91.6C615.525 88.016 616.965 83.984 619.141 79.504C620.165 77.328 621.189 75.184 622.213 73.072C623.301 70.96 624.357 68.816 625.381 66.64C623.013 68.24 620.645 70.032 618.277 72.016C615.909 73.936 613.605 76.112 611.365 78.544C608.741 81.36 605.701 84.976 602.245 89.392C599.749 92.528 598.309 94.096 597.925 94.096C597.029 94.096 596.293 93.68 595.717 92.848C595.141 92.016 594.853 91.312 594.853 90.736C594.853 89.904 595.589 87.76 597.061 84.304C597.509 83.216 597.957 82.16 598.405 81.136C598.917 80.048 599.397 78.992 599.845 77.968L594.085 84.016C593.957 84.144 593.573 84.528 592.933 85.168C592.293 85.808 591.781 86.128 591.397 86.128C591.077 86.128 590.917 85.904 590.917 85.456C590.917 85.328 590.981 85.168 591.109 84.976C591.173 84.72 591.365 84.432 591.685 84.112C592.645 83.152 593.637 82.128 594.661 81.04C595.685 79.952 596.741 78.704 597.829 77.296C598.661 76.208 599.845 74.608 601.381 72.496C602.981 70.32 604.933 67.6 607.237 64.336C607.941 63.376 608.933 62.896 610.213 62.896C611.493 62.896 612.133 63.504 612.133 64.72C612.133 65.168 610.501 68.144 607.237 73.648C605.573 76.592 604.229 78.992 603.205 80.848C602.245 82.704 601.637 84.08 601.381 84.976C602.789 83.44 604.453 81.712 606.373 79.792C608.357 77.872 610.629 75.728 613.189 73.36C621.061 66.064 626.245 62.416 628.741 62.416C629.445 62.416 630.117 62.64 630.757 63.088C631.461 63.536 631.813 64.112 631.813 64.816C631.813 65.136 630.565 67.472 628.069 71.824C625.637 76.24 624.293 78.864 624.037 79.696C631.141 73.744 634.693 70.736 634.693 70.672C640.709 66 645.029 63.664 647.653 63.664C648.421 63.664 649.125 63.92 649.765 64.432C650.469 64.88 650.821 65.424 650.821 66.064C650.821 66.192 648.773 68.88 644.677 74.128C640.453 79.44 638.085 83.792 637.573 87.184C637.317 89.488 638.501 90.64 641.125 90.64C642.725 90.64 644.965 89.616 647.845 87.568C650.725 85.52 653.733 82.704 656.869 79.12C657.253 78.672 657.669 78.256 658.117 77.872C658.565 77.424 658.949 77.2 659.269 77.2C659.653 77.2 659.845 77.36 659.845 77.68C659.845 78.128 659.557 78.64 658.981 79.216C657.317 81.2 655.333 83.248 653.029 85.36C650.789 87.472 648.549 89.264 646.309 90.736C644.069 92.144 642.085 92.848 640.357 92.848C636.005 92.848 633.829 90.832 633.829 86.8C633.829 85.392 634.213 83.76 634.981 81.904C635.749 79.984 636.517 78.256 637.285 76.72C639.141 73.136 641.157 69.968 643.333 67.216C641.285 68.24 639.141 69.584 636.901 71.248C634.725 72.912 632.453 74.864 630.085 77.104C624.581 82.48 620.805 87.92 618.757 93.424C618.437 93.936 617.893 94.192 617.125 94.192Z" fill="white"/>
<path fill-rule="evenodd" clip-rule="evenodd" d="M402.871 68.7115H422.743L440 47H420.129L402.871 68.7115ZM383 94H402.871L420.129 72.0207H400.257L383 94Z" fill="#FF8200"/>
<path fill-rule="evenodd" clip-rule="evenodd" d="M390.077 46.7972H408.428L421 68.8227H402.649L390.077 46.7972ZM306.497 48.689L305.036 62.6013C299.44 54.788 286.473 60.1793 285.454 69.9133C284.16 82.2693 296.641 85.1517 303.434 77.8752L301.969 91.8204C299.942 92.8308 297.96 93.611 296.004 94.1411C294.101 94.6626 292.143 94.9488 290.173 94.9936C287.74 95.0449 285.537 94.7858 283.55 94.2201C281.614 93.6874 279.792 92.7943 278.178 91.5863C275.111 89.3169 272.894 86.4318 271.527 82.9192C270.162 79.3961 269.711 75.4217 270.178 70.9789C270.552 67.4098 271.442 64.1537 272.858 61.2015C274.261 58.2493 276.205 55.5695 278.681 53.1383C281.021 50.8189 283.57 49.0705 286.329 47.8812C289.075 46.7038 292.074 46.0749 295.315 46.0065C297.226 45.9599 299.135 46.1633 300.994 46.6117C302.846 47.0603 304.673 47.7602 306.497 48.689V48.689Z" fill="white"/>
<path d="M526.185 416.52C525.586 415.555 524.786 414.014 524.292 412.872C521.411 406.188 521.281 399.269 523.704 392.632C526.373 385.347 531.477 379.781 538.074 376.933C546.365 373.368 555.526 374.062 563.475 378.781C568.52 381.676 572.095 386.147 574.812 392.479C575.153 393.291 575.459 394.15 575.764 394.891L526.185 416.52ZM542.743 387.677C536.851 390.207 533.817 395.738 534.452 402.211L559.383 391.467C555.091 386.43 549.517 384.759 542.743 387.677V387.677ZM562.488 411.048C562.476 411.048 562.476 411.06 562.476 411.06L561.958 410.707C560.465 413.12 558.148 415.085 555.22 416.356C549.646 418.78 544.483 418.156 540.767 414.896L540.426 415.414C540.426 415.414 540.426 415.402 540.415 415.402L534.088 424.876C535.664 425.97 537.345 426.888 539.109 427.629C546.095 430.536 553.245 430.395 560.289 427.335C565.381 425.123 569.379 421.757 572.107 417.485L562.488 411.048ZM593.087 363V415.65L601.271 418.968L596.626 429.818L587.595 426.052C585.572 425.17 584.184 423.828 583.15 422.31C582.15 420.769 581.409 418.639 581.409 415.791V363H593.087ZM614.278 402.246C614.278 397.762 616.265 393.738 619.393 391.008L610.997 381.64C605.305 386.677 601.718 394.032 601.718 402.222C601.706 410.425 605.293 417.791 610.973 422.828L619.358 413.461C616.242 410.719 614.278 406.718 614.278 402.246V402.246ZM629.189 417.179C627.543 417.179 625.943 416.897 624.462 416.403L620.452 428.324C623.192 429.242 626.12 429.748 629.177 429.748C642.466 429.759 653.555 420.321 656.131 407.789L643.806 405.27C642.407 412.084 636.398 417.191 629.189 417.179V417.179ZM629.224 374.744C626.179 374.744 623.25 375.239 620.51 376.145L624.485 388.077C625.979 387.583 627.566 387.312 629.213 387.312C636.433 387.324 642.454 392.455 643.818 399.28L656.142 396.786C653.614 384.229 642.525 374.756 629.224 374.744V374.744Z" fill="white"/>
<defs>
<filter id="filter0_i_47_15" x="0" y="0" width="725" height="461" filterUnits="userSpaceOnUse" color-interpolation-filters="sRGB">
<feFlood flood-opacity="0" result="BackgroundImageFix"/>
<feBlend mode="normal" in="SourceGraphic" in2="BackgroundImageFix" result="shape"/>
<feColorMatrix in="SourceAlpha" type="matrix" values="0 0 0 0 0 0 0 0 0 0 0 0 0 0 0 0 0 0 127 0" result="hardAlpha"/>
<feOffset dx="3" dy="3"/>
<feGaussianBlur stdDeviation="3"/>
<feComposite in2="hardAlpha" operator="arithmetic" k2="-1" k3="1"/>
<feColorMatrix type="matrix" values="0 0 0 0 1 0 0 0 0 1 0 0 0 0 1 0 0 0 0.25 0"/>
<feBlend mode="normal" in2="shape" result="effect1_innerShadow_47_15"/>
</filter>
<linearGradient id="paint0_linear_47_15" x1="610.09" y1="61.83" x2="354.096" y2="526.995" gradientUnits="userSpaceOnUse">
<stop stop-color="#0071B1"/>
<stop offset="1" stop-color="#00639B"/>
</linearGradient>
<linearGradient id="paint1_linear_47_15" x1="171" y1="165" x2="87" y2="221" gradientUnits="userSpaceOnUse">
<stop stop-color="#F4F4F4"/>
<stop offset="1" stop-color="#D6D6D6"/>
</linearGradient>
</defs>
</svg>
