<svg width="72" height="72" viewBox="0 0 72 72" fill="none" xmlns="http://www.w3.org/2000/svg">
<path d="M54.9231 0H17.0769C7.64559 0 0 7.64559 0 17.0769V54.9231C0 64.3544 7.64559 72 17.0769 72H54.9231C64.3544 72 72 64.3544 72 54.9231V17.0769C72 7.64559 64.3544 0 54.9231 0Z" fill="#FBF8FC"/>
<path d="M35.8167 35.1548C35.9376 35.1797 36.0624 35.1797 36.1833 35.1548C38.5039 34.65 40.5803 33.3626 42.0643 31.5085C43.5482 29.6543 44.3493 27.3462 44.3333 24.9714V19.5964C44.3391 19.4633 44.3129 19.3308 44.2568 19.2099C44.2008 19.0891 44.1166 18.9834 44.0113 18.9018C43.906 18.8202 43.7827 18.765 43.6517 18.7408C43.5207 18.7167 43.3858 18.7244 43.2583 18.7631C42.2874 19.0642 41.2525 19.0929 40.2665 18.846C39.2804 18.5991 38.3811 18.0862 37.6667 17.3631L36.6 16.2381C36.4376 16.0852 36.223 16 36 16C35.777 16 35.5623 16.0852 35.4 16.2381L34.3333 17.3631C33.6256 18.0889 32.7326 18.607 31.7513 18.8611C30.7699 19.1153 29.7377 19.0958 28.7667 18.8048C28.6419 18.766 28.5098 18.7571 28.3809 18.7788C28.2521 18.8006 28.1302 18.8523 28.025 18.9298C27.5167 19.3214 27.6667 19.3214 27.6667 24.9714C27.6506 27.3462 28.4518 29.6543 29.9357 31.5085C31.4196 33.3626 33.4961 34.65 35.8167 35.1548V35.1548ZM29.3333 20.6298C30.4574 20.7866 31.6026 20.6742 32.6747 20.3018C33.7468 19.9295 34.7151 19.3079 35.5 18.4881L36 17.9798L36.5 18.4881C37.2849 19.3079 38.2532 19.9295 39.3253 20.3018C40.3974 20.6742 41.5426 20.7866 42.6667 20.6298V24.9714C42.6811 26.9355 42.03 28.8465 40.8194 30.393C39.6088 31.9396 37.91 33.0306 36 33.4881C34.0942 33.0315 32.3986 31.9443 31.1884 30.4028C29.9782 28.8614 29.3245 26.9562 29.3333 24.9964V20.6298Z" fill="url(#paint0_linear_46_4)"/>
<path d="M35.2084 29.3215C35.725 29.3215 35.55 29.3215 39.975 24.0215C40.1165 23.8513 40.1845 23.6319 40.1642 23.4116C40.1439 23.1912 40.0369 22.988 39.8667 22.8465C39.6965 22.7051 39.4771 22.637 39.2568 22.6573C39.0364 22.6777 38.8331 22.7847 38.6917 22.9549L35.1084 27.2549L33.2584 25.3965C33.1807 25.3188 33.0884 25.2572 32.9869 25.2151C32.8854 25.1731 32.7766 25.1514 32.6667 25.1514C32.4448 25.1514 32.232 25.2396 32.075 25.3965C31.9973 25.4742 31.9357 25.5665 31.8936 25.668C31.8516 25.7695 31.83 25.8783 31.83 25.9882C31.83 26.2101 31.9181 26.4229 32.075 26.5799C34.8 29.3215 34.7084 29.3215 35.2084 29.3215Z" fill="url(#paint1_linear_46_4)"/>
<path d="M50.7833 45.9881C51.4646 45.1692 51.8362 44.1368 51.8333 43.0715C51.8333 40.5715 52.1417 38.6131 50.1 36.9881C50.1859 36.5657 50.1768 36.1295 50.0734 35.711C49.97 35.2925 49.7749 34.9022 49.5021 34.5684C49.2293 34.2345 48.8858 33.9655 48.4963 33.7808C48.1068 33.5961 47.6811 33.5002 47.25 33.5002C46.8189 33.5002 46.3932 33.5961 46.0037 33.7808C45.6142 33.9655 45.2707 34.2345 44.9979 34.5684C44.7251 34.9022 44.53 35.2925 44.4266 35.711C44.3232 36.1295 44.3141 36.5657 44.4 36.9881C42.3583 38.6131 42.6667 40.6048 42.6667 43.0715C42.6638 44.1368 43.0354 45.1692 43.7167 45.9881C42.4424 45.9413 41.1978 46.379 40.2333 47.2131C39.843 47.0345 39.4266 46.9191 39 46.8715C39.6583 45.8965 39.6083 45.2048 39.8333 43.3465C40.2583 39.5048 35.3083 38.0631 33.1 40.5298C31.8167 41.9715 32.2083 43.3965 32.4167 45.2631C32.4783 45.8412 32.6847 46.3943 33.0167 46.8715C32.5902 46.9202 32.1741 47.0355 31.7833 47.2131C30.8146 46.375 29.5633 45.937 28.2833 45.9881C29.5917 44.4048 29.3333 42.8798 29.3333 40.5715C29.3333 39.3559 28.8504 38.1901 27.9909 37.3306C27.1314 36.471 25.9656 35.9881 24.75 35.9881C23.5344 35.9881 22.3686 36.471 21.5091 37.3306C20.6496 38.1901 20.1667 39.3559 20.1667 40.5715C20.1667 42.8381 19.9167 44.4131 21.2167 45.9881C20.5421 45.9589 19.8685 46.0666 19.2366 46.3047C18.6048 46.5429 18.0277 46.9065 17.5402 47.3738C17.0527 47.841 16.6649 48.4021 16.4002 49.0233C16.1355 49.6445 15.9994 50.3129 16 50.9881V55.1548C16 55.3758 16.0878 55.5878 16.2441 55.7441C16.4004 55.9004 16.6123 55.9881 16.8333 55.9881H55.1667C55.3877 55.9881 55.5996 55.9004 55.7559 55.7441C55.9122 55.5878 56 55.3758 56 55.1548V50.9881C56.0006 50.3129 55.8645 49.6445 55.5998 49.0233C55.3351 48.4021 54.9473 47.841 54.4598 47.3738C53.9723 46.9065 53.3952 46.5429 52.7634 46.3047C52.1315 46.0666 51.4579 45.9589 50.7833 45.9881V45.9881ZM50.1667 40.1548C49.1537 40.1248 48.1591 39.8776 47.25 39.4298C46.3583 38.9798 46.225 40.1715 44.8667 40.1715H44.4167C44.5196 39.4839 44.8655 38.8559 45.3916 38.4014C45.9177 37.9468 46.5892 37.6958 47.2845 37.6938C47.9798 37.6918 48.6528 37.9389 49.1815 38.3904C49.7102 38.8419 50.0597 39.4678 50.1667 40.1548V40.1548ZM48.5 36.1798C47.7 35.9465 46.85 35.9465 46.05 36.1798C46.1054 35.8968 46.257 35.6417 46.479 35.4577C46.701 35.2737 46.9798 35.1721 47.2682 35.1701C47.5565 35.1682 47.8367 35.2659 48.0612 35.4469C48.2857 35.6279 48.4407 35.8809 48.5 36.1631V36.1798ZM44.3333 43.0715V41.8215C45.2656 41.9133 46.1998 41.6679 46.9667 41.1298C47.9793 41.563 49.0656 41.7978 50.1667 41.8215V43.0715C50.1667 43.845 49.8594 44.5869 49.3124 45.1339C48.7654 45.6809 48.0235 45.9881 47.25 45.9881C46.4765 45.9881 45.7346 45.6809 45.1876 45.1339C44.6406 44.5869 44.3333 43.845 44.3333 43.0715ZM34.3333 41.6381C34.5159 41.4341 34.7393 41.2707 34.9891 41.1588C35.2389 41.0468 35.5096 40.9886 35.7833 40.9881H36.2167C36.4921 40.9875 36.7646 41.0452 37.0161 41.1575C37.2677 41.2697 37.4926 41.434 37.676 41.6395C37.8595 41.845 37.9973 42.087 38.0804 42.3497C38.1636 42.6123 38.1901 42.8895 38.1583 43.1631L37.95 45.0798C37.888 45.5531 37.656 45.9877 37.2972 46.3025C36.9384 46.6174 36.4773 46.791 36 46.791C35.5227 46.791 35.0616 46.6174 34.7028 46.3025C34.344 45.9877 34.112 45.5531 34.05 45.0798C33.8417 43.1965 33.5917 42.4631 34.3333 41.6381ZM27.6667 40.1548C26.6537 40.1248 25.6591 39.8776 24.75 39.4298C23.8583 38.9798 23.725 40.1715 22.3667 40.1715H21.875C21.94 39.4497 22.2722 38.7781 22.8064 38.2884C23.3407 37.7987 24.0385 37.5261 24.7632 37.5241C25.488 37.522 26.1874 37.7905 26.7244 38.2772C27.2615 38.7638 27.5975 39.4334 27.6667 40.1548V40.1548ZM21.8333 43.0715V41.8215C22.7656 41.9133 23.6998 41.6679 24.4667 41.1298C25.4793 41.563 26.5656 41.7978 27.6667 41.8215V43.0715C27.6667 43.845 27.3594 44.5869 26.8124 45.1339C26.2654 45.6809 25.5235 45.9881 24.75 45.9881C23.9765 45.9881 23.2346 45.6809 22.6876 45.1339C22.1406 44.5869 21.8333 43.845 21.8333 43.0715V43.0715ZM17.6667 50.9881C17.6667 50.1041 18.0179 49.2562 18.643 48.6311C19.2681 48.006 20.1159 47.6548 21 47.6548C29.0917 47.6548 29.2417 47.4631 30.3833 48.2548C29.0583 49.7631 29.3333 51.0965 29.3333 54.3215H17.6667V50.9881ZM31 54.3215V50.9881C31 50.3251 31.2634 49.6892 31.7322 49.2204C32.2011 48.7515 32.837 48.4881 33.5 48.4881H38.5C39.163 48.4881 39.7989 48.7515 40.2678 49.2204C40.7366 49.6892 41 50.3251 41 50.9881V54.3215H31ZM54.3333 54.3215H42.6667C42.6667 51.0631 42.9417 49.7548 41.6167 48.2548C42.85 47.4215 43.4083 47.6548 51 47.6548C51.8841 47.6548 52.7319 48.006 53.357 48.6311C53.9821 49.2562 54.3333 50.1041 54.3333 50.9881V54.3215Z" fill="url(#paint2_linear_46_4)"/>
<defs>
<linearGradient id="paint0_linear_46_4" x1="37.2069" y1="23.5861" x2="29.2652" y2="30.6691" gradientUnits="userSpaceOnUse">
<stop stop-color="#0071B1"/>
<stop offset="1" stop-color="#00639B"/>
</linearGradient>
<linearGradient id="paint1_linear_46_4" x1="36.6068" y1="25.2919" x2="33.9102" y2="28.7472" gradientUnits="userSpaceOnUse">
<stop stop-color="#0071B1"/>
<stop offset="1" stop-color="#00639B"/>
</linearGradient>
<linearGradient id="paint2_linear_46_4" x1="38.9167" y1="42.3977" x2="30.2537" y2="56.253" gradientUnits="userSpaceOnUse">
<stop stop-color="#0071B1"/>
<stop offset="1" stop-color="#00639B"/>
</linearGradient>
</defs>
</svg>
